<?xml version="1.0" encoding="UTF-8"?>
<svg xmlns="http://www.w3.org/2000/svg" xmlns:xlink="http://www.w3.org/1999/xlink" width="2376.800049pt" height="2374.399902pt" viewBox="0 0 2376.800049 2374.399902" version="1.1">
<g id="surface1">
<path style=" stroke:none;fill-rule:nonzero;fill:rgb(51%,51%,51%);fill-opacity:1;" d="M 1048 2364 C 963.199219 2352.800781 898.398438 2340 856 2326.398438 C 692.800781 2274.398438 559.199219 2206.398438 579.199219 2185.601562 C 582.398438 2182.398438 654.398438 2136 738.398438 2082.398438 C 823.199219 2028.800781 917.601562 1968 948.800781 1948 L 1006.398438 1912 L 1088.800781 1920.800781 C 1347.199219 1947.199219 1563.199219 1868.800781 1732.800781 1685.601562 C 1820 1591.199219 1865.601562 1509.601562 1906.398438 1372 C 1920 1324.800781 1923.199219 1293.601562 1923.199219 1168 L 1924 1020 L 2063.199219 809.601562 C 2140 694.398438 2206.398438 600.800781 2211.199219 602.398438 C 2234.398438 609.601562 2307.199219 778.398438 2336 892 C 2355.199219 967.199219 2376 1119.199219 2376 1188 C 2376 1243.199219 2356 1404.800781 2344 1452 C 2312 1574.398438 2286.398438 1641.601562 2238.398438 1734.398438 C 2118.398438 1963.199219 1932.800781 2141.601562 1700 2255.199219 C 1624.800781 2291.199219 1600 2301.601562 1540 2319.199219 C 1451.199219 2344.800781 1418.398438 2351.199219 1316 2364 C 1205.601562 2377.601562 1154.398438 2377.601562 1048 2364 Z M 1048 2364 "/>
<path style=" stroke:none;fill-rule:nonzero;fill:rgb(43%,43%,43%);fill-opacity:1;" d="M 157.601562 1769.601562 C 145.601562 1756.800781 120.800781 1709.601562 93.601562 1648 C 62.398438 1578.398438 16 1416 16 1374.398438 C 16 1362.398438 12.800781 1350.398438 8 1348 C 3.199219 1344.800781 0 1282.398438 0 1188 C 0 1093.601562 3.199219 1031.199219 8 1028 C 12.800781 1025.601562 16 1013.601562 16 1001.601562 C 16 989.601562 25.601562 944 36.800781 900 C 48 856 59.199219 812 61.601562 801.601562 C 64 792 68.800781 781.601562 72.800781 779.199219 C 76.800781 776.800781 80 770.398438 80 764 C 80 744.800781 140 622.398438 180 559.199219 C 227.199219 485.601562 293.601562 400.800781 347.199219 347.199219 C 462.398438 232 634.398438 123.199219 784 70.398438 C 847.199219 48 976 16 1001.601562 16 C 1013.601562 16 1025.601562 12.800781 1028 8 C 1034.398438 -2.398438 1341.601562 -2.398438 1348 8 C 1350.398438 12.800781 1362.398438 16 1373.601562 16 C 1400.800781 16 1518.398438 44.800781 1575.199219 64.800781 C 1672.800781 100 1790.398438 159.199219 1800.800781 176.800781 C 1806.398438 188 1783.199219 205.601562 1669.601562 276 C 1594.398438 324 1506.398438 380 1474.398438 400.800781 C 1373.601562 468 1380.800781 466.398438 1276 451.199219 C 1189.601562 438.398438 1177.601562 438.398438 1096 451.199219 C 913.601562 479.199219 782.398438 544 663.199219 664 C 544 784 480 912.800781 452 1091.199219 C 440.800781 1158.398438 440.800781 1184 448.800781 1259.199219 L 458.398438 1348 L 394.398438 1444 C 359.199219 1496.800781 294.398438 1595.199219 250.398438 1661.601562 C 176 1775.199219 169.601562 1783.199219 157.601562 1769.601562 Z M 157.601562 1769.601562 "/>
<path style=" stroke:none;fill-rule:nonzero;fill:rgb(70%,70%,70%);fill-opacity:1;" d="M 100.800781 2257.601562 C 98.398438 2253.601562 160.800781 2153.601562 239.199219 2035.199219 C 545.601562 1572 693.601562 1347.199219 702.398438 1331.199219 C 708.800781 1320 708.800781 1304.800781 702.398438 1279.199219 C 688.800781 1220.800781 700 1084.800781 722.398438 1024 C 755.199219 937.601562 777.601562 902.398438 840 839.199219 C 903.199219 776 976 732.800781 1063.199219 708 C 1112 694.398438 1248.800781 692 1300 704 C 1336 712 1292 736.800781 1716 468 C 2193.601562 164 2264 120 2272 120 C 2288 120 2296.800781 104.800781 2132 356 C 1860 769.601562 1756 927.199219 1716.800781 984 L 1676.800781 1044 L 1678.398438 1156 C 1680.800781 1259.199219 1679.199219 1272.800781 1660 1332 C 1648 1367.199219 1627.199219 1416 1613.601562 1440 C 1587.199219 1487.199219 1494.398438 1583.199219 1458.398438 1602.398438 C 1376 1644.800781 1350.398438 1656 1305.601562 1667.199219 C 1247.199219 1681.601562 1131.199219 1684 1088.800781 1671.199219 C 1056.800781 1661.601562 1083.199219 1647.199219 728 1872 C 711.199219 1883.199219 585.601562 1961.601562 450.398438 2047.199219 C 315.199219 2132.800781 193.601562 2211.199219 180 2220.800781 C 144 2247.199219 105.601562 2264.800781 100.800781 2257.601562 Z M 100.800781 2257.601562 "/>
<path style=" stroke:none;fill-rule:nonzero;fill:rgb(59%,59%,59%);fill-opacity:1;" d="M 1080 1670.398438 C 978.398438 1641.601562 901.601562 1596.800781 834.398438 1527.199219 C 731.199219 1420.800781 689.601562 1304.800781 698.398438 1153.601562 C 706.398438 1024.800781 748 932 840 839.199219 C 903.199219 776 976 732.800781 1063.199219 708 C 1120 692 1254.398438 692 1315.199219 708 C 1424.800781 736.800781 1545.601562 825.601562 1605.601562 922.398438 C 1664 1015.199219 1673.601562 1048.800781 1678.398438 1161.601562 C 1681.601562 1255.199219 1680 1268 1660.800781 1329.601562 C 1648.800781 1365.601562 1628 1415.199219 1613.601562 1440 C 1587.199219 1487.199219 1495.199219 1583.199219 1458.398438 1602.398438 C 1376 1644.800781 1350.398438 1656 1305.601562 1667.199219 C 1249.601562 1681.601562 1124.800781 1683.199219 1080 1670.398438 Z M 1080 1670.398438 "/>
</g>
</svg>
