<?xml version="1.0" encoding="UTF-8"?>
<svg width="2971px" height="2968px" viewBox="0 0 2971 2968" version="1.1" xmlns="http://www.w3.org/2000/svg" xmlns:xlink="http://www.w3.org/1999/xlink">
    <!-- Generator: Sketch 48.2 (47327) - http://www.bohemiancoding.com/sketch -->
    <title>Untitled 6</title>
    <desc>Created with Sketch.</desc>
    <defs></defs>
    <g id="Page-1" stroke="none" stroke-width="1" fill="none" fill-rule="evenodd">
        <g id="fitnesse-big" fill-rule="nonzero">
            <g id="layer102" transform="translate(721.000000, 752.000000)" fill="#468153">
                <path d="M589,2203 C483,2189 402,2173 349,2156 C145,2091 -22,2006 3,1980 C7,1976 97,1918 202,1851 C308,1784 426,1708 465,1683 L537,1638 L640,1649 C963,1682 1233,1584 1445,1355 C1554,1237 1611,1135 1662,963 C1679,904 1683,865 1683,708 L1684,523 L1858,260 C1954,116 2037,-1 2043,1 C2072,10 2163,221 2199,363 C2223,457 2249,647 2249,733 C2249,802 2224,1004 2209,1063 C2169,1216 2137,1300 2077,1416 C1927,1702 1695,1925 1404,2067 C1310,2112 1279,2125 1204,2147 C1093,2179 1052,2187 924,2203 C786,2220 722,2220 589,2203 Z" id="Shape"></path>
            </g>
            <g id="layer103" fill="#D54440">
                <path d="M197,2212 C182,2196 151,2137 117,2060 C78,1973 20,1770 20,1718 C20,1703 16,1688 10,1685 C4,1681 0,1603 0,1485 C0,1367 4,1289 10,1285 C16,1282 20,1267 20,1252 C20,1237 32,1180 46,1125 C60,1070 74,1015 77,1002 C80,990 86,977 91,974 C96,971 100,963 100,955 C100,931 175,778 225,699 C284,607 367,501 434,434 C578,290 793,154 980,88 C1059,60 1220,20 1252,20 C1267,20 1282,16 1285,10 C1293,-3 1677,-3 1685,10 C1688,16 1703,20 1717,20 C1751,20 1898,56 1969,81 C2091,125 2238,199 2251,221 C2258,235 2229,257 2087,345 C1993,405 1883,475 1843,501 C1717,585 1726,583 1595,564 C1487,548 1472,548 1370,564 C1142,599 978,680 829,830 C680,980 600,1141 565,1364 C551,1448 551,1480 561,1574 L573,1685 L493,1805 C449,1871 368,1994 313,2077 C220,2219 212,2229 197,2212 Z" id="Shape"></path>
            </g>
            <g id="layer104" transform="translate(125.000000, 149.000000)" fill="#A9C75C">
                <path d="M1,2673 C-2,2668 76,2543 174,2395 C557,1816 742,1535 753,1515 C761,1501 761,1482 753,1450 C736,1377 750,1207 778,1131 C819,1023 847,979 925,900 C1004,821 1095,767 1204,736 C1265,719 1436,716 1500,731 C1545,741 1490,772 2020,436 C2617,56 2705,1 2715,1 C2735,1 2746,-18 2540,296 C2200,813 2070,1010 2021,1081 L1971,1156 L1973,1296 C1976,1425 1974,1442 1950,1516 C1935,1560 1909,1621 1892,1651 C1859,1710 1743,1830 1698,1854 C1595,1907 1563,1921 1507,1935 C1434,1953 1289,1956 1236,1940 C1196,1928 1229,1910 785,2191 C764,2205 607,2303 438,2410 C269,2517 117,2615 100,2627 C55,2660 7,2682 1,2673 Z" id="Shape"></path>
            </g>
            <g id="layer105" transform="translate(871.000000, 870.000000)" fill="#83CEFD">
                <path d="M479,1218 C352,1182 256,1126 172,1039 C43,906 -9,761 2,572 C12,411 64,295 179,179 C258,100 349,46 458,15 C529,-5 697,-5 773,15 C910,51 1061,162 1136,283 C1209,399 1221,441 1227,582 C1231,699 1229,715 1205,792 C1190,837 1164,899 1146,930 C1113,989 998,1109 952,1133 C849,1186 817,1200 761,1214 C691,1232 535,1234 479,1218 Z" id="Shape"></path>
            </g>
        </g>
    </g>
</svg>